HIERARCHY
ROOT pelvis
{
	OFFSET 0.000000 0.000000 0.000000
	CHANNELS 6 Xposition Yposition Zposition Zrotation Xrotation Yrotation
	JOINT lfemur
	{
		OFFSET 11.446000 0.000000 0.000000
		CHANNELS 3 Zrotation Xrotation Yrotation
		JOINT ltibia
		{
			OFFSET 0.000000 -42.030400 0.000000
			CHANNELS 3 Zrotation Xrotation Yrotation
			JOINT lfoot
			{
				OFFSET 0.000000 -39.930200 0.000000
				CHANNELS 3 Zrotation Xrotation Yrotation
				JOINT ltoes
				{
					OFFSET 0.000000 0.000000 11.775800
					CHANNELS 3 Zrotation Xrotation Yrotation
					End Site
					{
					    OFFSET 0.000000 0.000000 5.000000
					}
				}
			}
		}
	}
	JOINT rfemur
	{
		OFFSET -11.446000 0.000000 0.000000
		CHANNELS 3 Zrotation Xrotation Yrotation
		JOINT rtibia
		{
			OFFSET 0.000000 -42.030400 0.000000
			CHANNELS 3 Zrotation Xrotation Yrotation
			JOINT rfoot
			{
				OFFSET 0.000000 -39.930200 0.000000
				CHANNELS 3 Zrotation Xrotation Yrotation
				JOINT rtoes
				{
					OFFSET 0.000000 0.000000 11.775800
					CHANNELS 3 Zrotation Xrotation Yrotation
					End Site
					{
					    OFFSET 0.000000 0.000000 5.000000
					}
				}
			}
		}
	}
	JOINT thorax
	{
		OFFSET 0.000000 11.255600 -5.000000
		CHANNELS 3 Zrotation Xrotation Yrotation
		JOINT head
		{
			OFFSET 0.000000 43.799300 0.000000
			CHANNELS 3 Zrotation Xrotation Yrotation
			End Site
			{
			    OFFSET 0.000000 5.000000 0.000000
			}
		}
		JOINT lclavicle
		{
			OFFSET 0.000000 39.863000 0.000000
			CHANNELS 3 Zrotation Xrotation Yrotation
			JOINT lhumerus
			{
				OFFSET 17.380600 4.958300 0.000000
				CHANNELS 3 Zrotation Xrotation Yrotation
				JOINT lradius
				{
					OFFSET 0.000000 -27.561300 0.000000
					CHANNELS 3 Zrotation Xrotation Yrotation
					JOINT lhand
					{
						OFFSET 0.000000 -26.933000 0.000000
						CHANNELS 3 Zrotation Xrotation Yrotation
						End Site
						{
						    OFFSET 0.000000 -5.000000 0.000000
						}
					}
				}
			}
		}
		JOINT rclavicle
		{
			OFFSET 0.000000 39.863000 0.000000
			CHANNELS 3 Zrotation Xrotation Yrotation
			JOINT rhumerus
			{
				OFFSET -17.380600 4.958300 0.000000
				CHANNELS 3 Zrotation Xrotation Yrotation
				JOINT rradius
				{
					OFFSET 0.000000 -27.561300 0.000000
					CHANNELS 3 Zrotation Xrotation Yrotation
					JOINT rhand
					{
						OFFSET 0.000000 -26.933000 0.000000
						CHANNELS 3 Zrotation Xrotation Yrotation
						End Site
						{
						    OFFSET 0.000000 -5.000000 0.000000
						}
					}
				}
			}
		}
	}
}
MOTION
Frames:	13
Frame Time:	0.0333333
80.627800 87.412200 8.220800 -3.838307 -2.371226 -88.744550 -5.721066 2.368839 -8.210470 -0.000000 15.649488 -0.000000 -0.000000 1.886487 8.887692 -0.000000 -1.391221 -0.000000 -3.881484 1.996986 -5.178195 0.000000 16.088569 -0.000000 -0.000000 1.508677 -2.388119 0.000000 -29.550533 -0.000000 -4.829098 2.669672 -0.489234 17.994773 24.212242 0.349714 2.039528 -0.000000 2.206594 82.689615 -1.203891 66.350932 0.000000 -12.620040 -58.999595 14.574292 4.071934 0.000000 -0.875308 -0.000000 -0.509354 -78.079310 7.562873 -65.405629 -0.000000 -20.727862 39.567555 -12.484734 0.833775 0.000000 
80.607000 87.513000 8.284300 -3.656106 -2.156623 -88.561799 -5.486492 2.618155 -8.405103 -0.000000 14.786536 -0.000000 -0.000000 2.259521 8.920022 0.000000 -1.385784 0.000000 -3.610218 2.591485 -5.156300 -0.000000 14.598038 -0.000000 -0.000000 2.239811 -2.578814 -0.000000 -29.550294 -0.000000 -4.618717 2.400146 -0.511402 18.051636 23.900161 -0.255358 2.153484 0.000000 2.107055 82.543668 -1.137238 66.570815 0.000000 -12.584525 -59.071945 14.462370 4.033499 -0.000000 -0.830286 0.000000 -0.635397 -78.331708 7.461341 -65.623687 0.000001 -20.527158 39.883505 -12.571522 0.862582 -0.000000 
80.569400 87.586300 8.363100 -3.446663 -2.018879 -88.283612 -5.350445 2.769819 -8.644663 0.000000 14.079089 -0.000000 -0.000000 2.505677 8.956038 -0.000000 -1.390332 -0.000000 -3.459772 3.127723 -5.388466 -0.000000 13.232654 -0.000000 0.000000 2.858527 -2.516147 0.000000 -29.550294 -0.000000 -4.453707 2.224104 -0.562685 18.039157 23.822423 -0.186494 2.151044 0.000000 2.043545 82.581479 -1.228825 66.781522 -0.000001 -12.382429 -59.406833 14.487860 4.057532 -0.000000 -0.992221 0.000000 -0.631003 -78.185033 7.673755 -65.971388 -0.000001 -20.630405 39.625437 -12.008063 0.671461 0.000000 
80.565900 87.629700 8.445800 -3.262340 -1.989668 -88.050555 -5.343367 2.763835 -8.920550 0.000000 13.702264 0.000000 0.000000 2.717739 9.009803 -0.000000 -1.386132 -0.000000 -3.457830 3.326068 -5.613002 -0.000000 12.577140 -0.000000 0.000000 3.161442 -2.433579 0.000000 -29.549358 0.000000 -4.435958 2.078884 -0.569066 17.953694 23.779623 0.124452 2.250895 0.000000 1.988454 82.449377 -1.127413 66.422172 0.000000 -12.524732 -59.354238 14.376759 4.033598 0.000000 -0.985319 0.000000 -0.732712 -78.137303 7.849401 -65.826280 0.000000 -20.742490 39.560663 -12.154319 0.721169 0.000000 
80.615300 87.630300 8.522000 -3.104194 -1.972198 -87.989381 -5.382880 2.569289 -9.046030 0.000000 13.721275 -0.000000 -0.000000 2.717874 9.023519 -0.000000 -1.384181 -0.000000 -3.482059 3.169775 -5.566538 -0.000000 12.534495 0.000000 -0.000000 3.224083 -2.532438 0.000000 -29.550089 -0.000000 -4.409271 2.088925 -0.549850 17.822657 23.480057 0.446929 2.216732 0.000000 2.146110 82.603085 -1.157016 66.922992 -0.000001 -12.416213 -59.459582 14.629781 4.097352 0.000000 -0.917867 -0.000000 -0.823923 -78.203542 7.776269 -66.073895 0.000000 -20.714380 39.257428 -12.317575 0.777027 -0.000000 
80.704700 87.592300 8.587700 -3.028264 -1.989317 -88.089327 -5.480607 2.311944 -9.033190 -0.000000 13.987771 -0.000000 0.000000 2.627307 9.069686 0.000000 -1.383862 -0.000000 -3.571974 2.697344 -5.371635 0.000000 13.164593 -0.000000 0.000000 2.990449 -2.662567 -0.000000 -29.549904 -0.000000 -4.391265 2.195938 -0.423275 17.457559 23.173127 0.982708 2.270161 0.000000 2.150058 82.558881 -0.804734 66.701732 0.000000 -12.485382 -59.154266 14.605116 4.130008 -0.000000 -0.921093 0.000000 -0.690292 -78.199852 7.991016 -66.141208 0.000001 -20.651810 39.338735 -12.206008 0.739428 0.000000 
80.759400 87.536900 8.680200 -3.043070 -2.118141 -88.231720 -5.700135 2.105939 -8.865586 0.000000 14.389989 -0.000000 -0.000000 2.409577 9.033092 0.000000 -1.385619 -0.000000 -3.818901 2.148759 -5.298384 -0.000000 14.191359 -0.000000 -0.000000 2.556515 -2.631784 -0.000000 -29.551045 -0.000000 -4.421487 2.416271 -0.377305 17.031244 22.553579 1.058011 2.151252 0.000000 2.096040 82.679921 -0.246000 66.633662 0.000000 -12.508533 -59.050783 14.685949 4.229154 -0.000000 -1.160215 -0.000000 -0.422733 -77.940178 8.190864 -66.256099 0.000001 -20.694925 39.426124 -12.065289 0.691638 -0.000000 
80.827700 87.485300 8.762100 -3.064727 -2.237394 -88.256959 -5.878814 1.845585 -8.676374 -0.000000 14.865976 -0.000000 -0.000000 2.236514 8.830720 -0.000000 -1.381479 0.000000 -4.008932 1.694859 -5.152871 0.000000 15.061415 0.000000 -0.000000 2.209611 -2.822589 -0.000000 -29.551199 -0.000000 -4.489478 2.627240 -0.358949 16.569352 22.390008 1.584599 2.210232 0.000000 2.056202 82.697113 0.001651 67.228530 0.000001 -12.391324 -59.451955 14.643406 4.207302 -0.000000 -1.094956 0.000000 -0.308343 -78.056682 8.321303 -65.964857 0.000000 -20.642878 39.876573 -12.452927 0.823295 -0.000000 
80.815300 87.453500 8.879100 -3.121875 -2.279787 -88.093915 -6.007668 1.718700 -8.769382 -0.000000 15.238591 -0.000000 -0.000000 2.169893 8.736180 -0.000000 -1.380036 -0.000000 -4.129201 1.707311 -5.285297 0.000000 15.251119 -0.000000 -0.000000 2.057562 -2.854783 -0.000000 -29.551253 -0.000000 -4.418417 2.832222 -0.445733 16.148829 22.424724 2.020338 2.074377 -0.000000 2.152516 82.775458 -0.044554 67.099014 -0.000000 -12.458741 -59.121902 14.530872 4.193892 0.000000 -1.202984 0.000000 -0.441109 -78.013557 8.182748 -65.917499 0.000001 -20.652902 39.771791 -12.443955 0.819757 -0.000000 
80.801300 87.439900 8.976500 -3.109584 -2.344384 -87.951878 -6.122676 1.644322 -8.776790 -0.000000 15.377302 0.000000 -0.000000 2.113646 8.616956 -0.000000 -1.378751 0.000000 -4.256082 1.658565 -5.358816 -0.000000 15.422424 -0.000000 0.000000 1.982493 -2.898855 -0.000000 -29.551998 -0.000000 -4.395654 2.895659 -0.486391 15.860190 22.430307 2.073490 2.016820 -0.000000 2.166076 82.809433 -0.206989 67.157321 -0.000000 -12.325411 -59.351852 14.661952 4.176886 -0.000000 -1.274066 -0.000000 -0.369934 -77.979092 8.379178 -65.816171 -0.000001 -20.697349 39.626181 -12.325503 0.779802 0.000000 
80.776400 87.437900 9.068300 -3.043459 -2.381224 -87.790530 -6.212965 1.640114 -8.926353 0.000000 15.274062 -0.000000 -0.000000 2.177058 8.634926 -0.000000 -1.377401 -0.000000 -4.326802 1.682104 -5.360013 -0.000000 15.343497 -0.000000 -0.000000 1.987336 -3.060474 -0.000000 -29.552247 0.000000 -4.374183 2.839504 -0.503539 15.790180 22.394462 1.907373 1.895976 -0.000000 2.008542 82.830817 -0.142352 66.598373 -0.000001 -12.439452 -59.047170 14.739152 4.200482 -0.000000 -1.394912 0.000000 -0.472362 -77.830319 8.260925 -65.988912 -0.000000 -20.674374 39.547144 -12.478085 0.831553 0.000000 
80.778800 87.432400 9.155900 -2.945761 -2.452894 -87.636860 -6.337363 1.547958 -9.056662 0.000000 15.258796 -0.000000 0.000000 2.201201 8.588988 0.000000 -1.376880 -0.000000 -4.458274 1.596510 -5.420552 0.000000 15.415645 0.000000 0.000000 1.908514 -3.076854 -0.000000 -29.552295 -0.000000 -4.411187 2.780948 -0.516285 15.839536 22.431755 1.785419 1.820418 0.000000 1.784442 82.837838 -0.001447 66.188381 -0.000001 -12.475856 -59.329534 14.552414 4.055737 0.000000 -1.461383 0.000000 -0.496496 -77.724388 8.305615 -65.977621 0.000001 -20.742480 39.553494 -12.294231 0.769194 0.000000 
80.736600 87.435200 9.239200 -2.931181 -2.454800 -87.569001 -6.391559 1.608309 -9.178919 0.000000 15.180152 0.000000 0.000000 2.206448 8.651906 -0.000000 -1.374728 -0.000000 -4.509074 1.681141 -5.507935 0.000000 15.305974 -0.000000 -0.000000 1.951030 -3.096080 -0.000000 -29.552015 -0.000000 -4.394896 2.775239 -0.592461 15.884675 22.461201 1.818476 1.843347 0.000000 1.870863 82.784828 -0.152787 66.505261 -0.000000 -12.419255 -59.093260 14.428241 4.013098 0.000000 -1.475990 0.000000 -0.452883 -77.651368 8.286639 -66.004484 0.000000 -20.811368 39.583172 -12.343777 0.785939 0.000000 
